# xmcd CD database file
#
# Track frame offsets:
#	150
#	11588
#	32717
#	49749
#	63050
#	77425
#	90666
#	104906
#	118868
#	131042
#	144490
#
# Disc length: 2073 seconds
#
# Revision: 0
# Processed by: cddbd v1.5.2PL0 Copyright (c) Steve Scherf et al.
# Submitted via: CDex 1.51
#
DISCID=9108170b
DTITLE=Maynard Ferguson - The Ballad Style of Maynard Ferguson
DYEAR=1969
DGENRE=Jazz
TTITLE0=Born Free
TTITLE1=Girl Talk
TTITLE2=If He Walked Into My Life
TTITLE3=The Fool On The Hill
TTITLE4=The Impossible Dream
TTITLE5=Somewhere
TTITLE6=Maria
TTITLE7=As Long As He Needs Me
TTITLE8=Hushabye Mountain
TTITLE9=The Sound Of Silence
TTITLE10=You Only Live Twice
EXTD=YEAR: 1969
EXTT0=
EXTT1=
EXTT2=
EXTT3=
EXTT4=
EXTT5=
EXTT6=
EXTT7=
EXTT8=
EXTT9=
EXTT10=
PLAYORDER=
